<svg width="118" height="31" viewBox="0 0 118 31" fill="none" xmlns="http://www.w3.org/2000/svg">
<g clip-path="url(#clip0)">
<path d="M21.117 6.10406C21.117 9.16637 18.615 11.5426 15.3839 11.5426C12.1528 11.5426 9.64746 9.16637 9.64746 6.10406C9.64746 3.04176 12.1528 0.695312 15.3839 0.695312C18.615 0.695312 21.117 3.03844 21.117 6.10406ZM11.5039 6.10406C11.5335 7.10196 11.9544 8.04915 12.6772 8.74463C13.4001 9.4401 14.368 9.82912 15.3755 9.82912C16.3831 9.82912 17.351 9.4401 18.0739 8.74463C18.7967 8.04915 19.2176 7.10196 19.2472 6.10406C19.2176 5.10617 18.7967 4.15897 18.0739 3.4635C17.351 2.76802 16.3831 2.379 15.3755 2.379C14.368 2.379 13.4001 2.76802 12.6772 3.4635C11.9544 4.15897 11.5335 5.10617 11.5039 6.10406Z" fill="white"/>
<path d="M31.9509 11.4636L26.191 3.77467V11.4636H24.3647V0.742188H26.1576L31.9509 8.44767V0.742188H33.7438V11.4636H31.9509Z" fill="white"/>
<path d="M39.6041 2.36614V5.26274H44.889V6.88337H39.6041V9.83963H45.6951V11.4636H37.7778V0.742188H45.5078V2.36614H39.6041Z" fill="white"/>
<path d="M62.3424 1.76925L61.5864 3.36006C60.6346 2.76133 59.5417 2.41865 58.4155 2.36581C57.3485 2.36581 56.6528 2.76351 56.6528 3.48269C56.6528 5.82913 62.4996 4.57306 62.4829 8.43077C62.4829 10.3464 60.7803 11.5262 58.4021 11.5262C56.7675 11.5167 55.1935 10.9115 53.9802 9.82604L54.7696 8.26174C55.7598 9.20423 57.0608 9.75986 58.4322 9.82604C59.6999 9.82604 60.4559 9.35211 60.4559 8.52356C60.4559 6.13404 54.6124 7.46634 54.6124 3.65171C54.6124 1.81565 56.2046 0.668945 58.556 0.668945C59.8983 0.669715 61.2123 1.05155 62.3424 1.76925Z" fill="white"/>
<path d="M73.4073 11.4636V7.02257H67.6742V11.4636H65.8479V0.742188H67.6742V5.39862H73.4073V0.742188H75.2336V11.4636H73.4073Z" fill="white"/>
<path d="M89.9407 6.10406C89.9407 9.16637 87.4354 11.5426 84.2076 11.5426C80.9798 11.5426 78.4712 9.16637 78.4712 6.10406C78.4712 3.04176 80.9765 0.695312 84.2076 0.695312C87.4388 0.695312 89.9407 3.03844 89.9407 6.10406ZM80.3242 6.10406C80.3331 7.1211 80.748 8.0933 81.4782 8.80812C82.2084 9.52294 83.1945 9.92223 84.221 9.91869C84.9766 9.90693 85.7118 9.67437 86.3344 9.25017C86.9571 8.82598 87.4395 8.22904 87.7211 7.53424C88.0026 6.83944 88.0708 6.07773 87.9172 5.34467C87.7635 4.6116 87.3947 3.93982 86.8572 3.41361C86.3196 2.8874 85.6372 2.53019 84.8956 2.38679C84.1539 2.24339 83.3861 2.32019 82.6883 2.60755C81.9905 2.89491 81.3939 3.38004 80.9734 4.00208C80.5528 4.62411 80.327 5.35535 80.3242 6.10406Z" fill="white"/>
<path d="M96.7709 2.36614V11.4636H94.9446V2.36614H91.5295V0.742188H100.203V2.36614H96.7709Z" fill="white"/>
<path d="M0.84375 13.9521V15.8909L53.8699 16.7228L58.827 13.9521H0.84375Z" fill="white"/>
<path d="M117.844 15.7517L105.448 0.837891L110.9 13.9521H62.1717L57.2146 16.7228L110.913 17.5149L105.448 30.6656L117.844 15.7517Z" fill="white"/>
<path d="M11.912 20.8125C12.7683 20.8125 13.2499 21.2301 13.2499 21.9625C13.2499 22.695 12.7582 23.1689 11.912 23.1689H11.1293V24.1963H10.5439V20.8125H11.912ZM11.1293 22.6585H11.8819C12.407 22.6585 12.7047 22.4365 12.7047 21.9957C12.7047 21.5549 12.407 21.3328 11.8819 21.3328H11.1293V22.6585Z" fill="white"/>
<path d="M16.4744 23.4241L16.1399 24.1863H15.5613L17.0665 20.8125H17.6552L19.1302 24.1963H18.5148L18.1803 23.434L16.4744 23.4241ZM17.3307 21.419L16.6885 22.917H17.9729L17.3307 21.419Z" fill="white"/>
<path d="M23.4883 23.1623C23.436 23.1656 23.3835 23.1656 23.3311 23.1623H22.525V24.1963H21.9497V20.8125H23.3311C24.2008 20.8125 24.7025 21.2301 24.7025 21.9625C24.7198 22.1959 24.6604 22.4285 24.5332 22.6256C24.406 22.8228 24.2178 22.9738 23.9968 23.0562L24.7627 24.1963H24.0938L23.4883 23.1623ZM23.3311 22.6585C23.8563 22.6585 24.1573 22.4365 24.1573 21.9957C24.1573 21.5549 23.8563 21.3328 23.3311 21.3328H22.525V22.6585H23.3311Z" fill="white"/>
<path d="M28.9709 22.695L28.3922 23.328V24.1963H27.8169V20.8125H28.3922V22.5558L30.0145 20.8125H30.6834L29.3756 22.2542L30.7804 24.1963H30.0881L28.9709 22.695Z" fill="white"/>
<path d="M33.6235 24.1963V20.8125H34.1955V24.1963H33.6235Z" fill="white"/>
<path d="M39.8482 24.1963L38.0319 21.7769V24.1963H37.46V20.8125H38.0219L39.8482 23.2352V20.8125H40.4135V24.1963H39.8482Z" fill="white"/>
<path d="M46.5378 22.5391V23.7853C46.1483 24.0649 45.6808 24.2178 45.1998 24.2227C44.9646 24.2345 44.7294 24.1985 44.5087 24.1169C44.288 24.0352 44.0865 23.9097 43.9166 23.748C43.7468 23.5863 43.6121 23.3918 43.5209 23.1766C43.4298 22.9614 43.3841 22.7299 43.3866 22.4965C43.3891 22.2631 43.4398 22.0327 43.5356 21.8195C43.6314 21.6063 43.7702 21.4147 43.9435 21.2566C44.1168 21.0985 44.3209 20.9773 44.5433 20.9003C44.7657 20.8234 45.0017 20.7923 45.2366 20.8091C45.7149 20.8116 46.1774 20.9792 46.5445 21.283L46.21 21.7006C45.9419 21.4578 45.5931 21.321 45.2299 21.3162C45.0658 21.3076 44.9016 21.3323 44.7474 21.3886C44.5932 21.445 44.4522 21.5318 44.3329 21.6439C44.2137 21.756 44.1187 21.891 44.0538 22.0406C43.9889 22.1903 43.9555 22.3514 43.9555 22.5143C43.9555 22.6771 43.9889 22.8383 44.0538 22.9879C44.1187 23.1375 44.2137 23.2725 44.3329 23.3846C44.4522 23.4967 44.5932 23.5836 44.7474 23.6399C44.9016 23.6963 45.0658 23.7209 45.2299 23.7123C45.5069 23.7047 45.7769 23.6247 46.0126 23.4803V22.5391H46.5378Z" fill="white"/>
<path d="M55.7798 21.1341L55.5423 21.6346C55.2412 21.4452 54.8951 21.3378 54.5389 21.323C54.2044 21.323 53.9836 21.449 53.9836 21.6743C53.9836 22.4101 55.8233 22.0058 55.8166 23.232C55.8166 23.8319 55.2814 24.2031 54.5322 24.2031C54.019 24.2003 53.5248 24.0104 53.144 23.6695L53.3916 23.179C53.7026 23.475 54.1114 23.6493 54.5422 23.6695C54.9436 23.6695 55.1811 23.5203 55.1811 23.2585C55.1811 22.5095 53.3414 22.9271 53.3414 21.7274C53.3414 21.1507 53.8431 20.7861 54.5823 20.7861C55.0068 20.7867 55.4223 20.9075 55.7798 21.1341Z" fill="white"/>
<path d="M62.1919 22.4997C62.2093 22.8567 62.1184 23.2106 61.9309 23.516C61.7434 23.8213 61.468 24.0641 61.14 24.2129C60.8121 24.3618 60.4467 24.4099 60.0909 24.3512C59.7351 24.2924 59.4052 24.1295 59.1437 23.8833C58.8822 23.6371 58.701 23.319 58.6236 22.9699C58.5462 22.6209 58.5761 22.2568 58.7093 21.9247C58.8426 21.5926 59.0731 21.3076 59.3713 21.1065C59.6695 20.9053 60.0216 20.7973 60.3823 20.7962C60.6148 20.7873 60.8467 20.8247 61.0644 20.906C61.282 20.9874 61.481 21.1111 61.6497 21.2698C61.8183 21.4286 61.9532 21.6192 62.0463 21.8304C62.1395 22.0416 62.1889 22.2692 62.1919 22.4997ZM59.1815 22.4997C59.1849 22.8151 59.3122 23.1168 59.5364 23.3408C59.7606 23.5648 60.064 23.6934 60.3823 23.6994C60.6201 23.6955 60.8514 23.6221 61.0473 23.4884C61.2431 23.3548 61.3948 23.1668 61.4832 22.948C61.5716 22.7293 61.5929 22.4895 61.5443 22.2589C61.4957 22.0282 61.3795 21.8169 61.2102 21.6514C61.0409 21.4859 60.826 21.3737 60.5926 21.3287C60.3591 21.2838 60.1175 21.3081 59.898 21.3987C59.6784 21.4893 59.4908 21.6421 59.3586 21.838C59.2264 22.0339 59.1555 22.2641 59.1548 22.4997H59.1815Z" fill="white"/>
<path d="M67.2526 23.6693V24.1963H65.2056V20.8125H65.7775V23.6693H67.2526Z" fill="white"/>
<path d="M72.9357 22.7873C72.9357 23.6689 72.3738 24.2091 71.4573 24.2091C70.5408 24.2091 69.9722 23.6689 69.9722 22.7873V20.7988H70.5475V22.7873C70.5369 22.9091 70.5532 23.0317 70.5953 23.1466C70.6373 23.2614 70.7041 23.3659 70.791 23.4526C70.8779 23.5393 70.9828 23.6063 71.0984 23.6488C71.2141 23.6913 71.3377 23.7083 71.4606 23.6987C71.5829 23.7081 71.7058 23.6907 71.8206 23.6479C71.9354 23.6051 72.0393 23.5379 72.1251 23.451C72.2109 23.3641 72.2764 23.2597 72.317 23.145C72.3577 23.0304 72.3725 22.9083 72.3604 22.7873V20.7988H72.9357V22.7873Z" fill="white"/>
<path d="M77.3844 21.3229V24.1963H76.8124V21.3229H75.7354V20.8125H78.4648V21.3229H77.3844Z" fill="white"/>
<path d="M81.301 24.1963V20.8125H81.8763V24.1963H81.301Z" fill="white"/>
<path d="M88.4793 22.4994C88.4967 22.8566 88.4057 23.2107 88.2181 23.5161C88.0304 23.8215 87.7548 24.0643 87.4267 24.213C87.0985 24.3618 86.7329 24.4097 86.377 24.3507C86.0211 24.2917 85.6912 24.1284 85.4298 23.8819C85.1684 23.6354 84.9876 23.317 84.9105 22.9677C84.8335 22.6184 84.8638 22.2542 84.9976 21.9221C85.1314 21.5901 85.3625 21.3053 85.6611 21.1046C85.9597 20.9039 86.3122 20.7964 86.673 20.796C86.9051 20.788 87.1365 20.826 87.3535 20.9077C87.5706 20.9894 87.769 21.1132 87.9372 21.2718C88.1054 21.4305 88.24 21.6207 88.3331 21.8315C88.4262 22.0423 88.4759 22.2694 88.4793 22.4994ZM85.4689 22.4994C85.4715 22.8197 85.6023 23.1258 85.8324 23.3507C86.0625 23.5756 86.3732 23.7009 86.6965 23.6992C86.9342 23.6953 87.1656 23.6219 87.3614 23.4882C87.5573 23.3545 87.7089 23.1665 87.7973 22.9478C87.8857 22.729 87.907 22.4893 87.8584 22.2586C87.8099 22.0279 87.6937 21.8166 87.5243 21.6511C87.355 21.4857 87.1402 21.3734 86.9067 21.3285C86.6733 21.2835 86.4316 21.3079 86.2121 21.3985C85.9926 21.4891 85.8049 21.6419 85.6727 21.8378C85.5405 22.0336 85.4696 22.2638 85.4689 22.4994Z" fill="white"/>
<path d="M93.8844 24.1963L92.0715 21.7769V24.1963H91.4895V20.8125H92.0548L93.8777 23.2352V20.8125H94.443V24.1963H93.8844Z" fill="white"/>
<path d="M100.042 21.1341L99.8016 21.6346C99.501 21.4442 99.1546 21.3367 98.7981 21.323C98.4637 21.323 98.2462 21.449 98.2462 21.6743C98.2462 22.4101 100.083 22.0058 100.079 23.232C100.079 23.8319 99.544 24.2031 98.7948 24.2031C98.2806 24.2005 97.7853 24.0106 97.4033 23.6695L97.6508 23.179C97.9636 23.4745 98.3732 23.6486 98.8048 23.6695C99.2029 23.6695 99.4404 23.5203 99.4404 23.2585C99.4404 22.5095 97.604 22.9271 97.604 21.7274C97.604 21.1507 98.1024 20.7861 98.845 20.7861C99.2693 20.7873 99.6847 20.908 100.042 21.1341Z" fill="white"/>
</g>
<defs>
<clipPath id="clip0">
<rect width="117" height="30" fill="white" transform="translate(0.84375 0.666016)"/>
</clipPath>
</defs>
</svg>
